<?xml version="1.0" standalone="no"?>
<!DOCTYPE svg PUBLIC "-//W3C//DTD SVG 20010904//EN"
 "http://www.w3.org/TR/2001/REC-SVG-20010904/DTD/svg10.dtd">
<svg version="1.0" xmlns="http://www.w3.org/2000/svg"
 width="451.000000pt" height="451.000000pt" viewBox="0 0 451.000000 451.000000"
 preserveAspectRatio="xMidYMid meet">
<metadata>
Created by potrace 1.14, written by Peter Selinger 2001-2017
</metadata>
<g transform="translate(0.000000,451.000000) scale(0.100000,-0.100000)"
fill="#000000" stroke="none">
<path d="M1717 4485 c-90 -31 -138 -106 -145 -226 -4 -67 -1 -83 23 -137 28
-64 95 -136 152 -165 21 -11 64 -16 149 -18 566 -8 1051 -262 1375 -719 117
-166 228 -424 265 -615 4 -22 9 -47 10 -55 12 -54 19 -166 19 -295 -1 -157 -6
-214 -31 -330 -8 -38 -17 -80 -20 -92 -11 -56 -80 -237 -120 -316 -90 -181
-190 -317 -338 -462 -180 -176 -403 -314 -632 -391 -117 -39 -110 -37 -209
-58 -110 -23 -131 -26 -285 -32 -170 -8 -208 -21 -282 -97 -59 -60 -83 -129
-75 -222 8 -118 71 -202 170 -229 50 -14 184 -15 282 -2 76 10 150 20 155 21
3 1 25 5 50 9 71 13 72 13 136 30 390 101 779 331 1053 622 87 93 194 226 227
282 10 17 22 32 26 32 4 0 8 4 8 10 0 5 16 34 35 64 70 109 158 303 207 451
25 79 74 278 82 335 8 60 17 137 21 180 6 59 6 322 0 375 -16 137 -28 214 -46
295 -6 25 -13 56 -15 70 -11 59 -97 296 -143 394 -287 613 -831 1064 -1485
1231 -72 18 -156 36 -186 40 -30 4 -57 8 -60 10 -7 4 -177 17 -266 20 -39 1
-88 -3 -107 -10z"/>
<path d="M1240 3654 c-297 -51 -539 -233 -679 -511 -17 -35 -32 -66 -32 -70
-1 -5 -3 -12 -5 -18 -20 -62 -36 -130 -42 -175 -9 -70 -9 -1189 0 -1251 49
-339 298 -636 622 -741 132 -42 191 -47 581 -43 324 2 382 5 465 23 455 96
825 386 1015 797 88 189 127 368 129 580 1 162 -5 221 -38 365 -30 133 -119
325 -212 460 -97 140 -275 307 -424 398 -124 74 -294 140 -455 174 -91 19
-135 21 -475 23 -268 1 -396 -2 -450 -11z"/>
</g>
</svg>
